<svg width="600" height="400" viewBox="0 0 600 400" fill="none" xmlns="http://www.w3.org/2000/svg">
  <defs>
    <linearGradient id="gradient1" x1="0%" y1="0%" x2="100%" y2="100%">
      <stop offset="0%" style="stop-color:#3B82F6;stop-opacity:1" />
      <stop offset="100%" style="stop-color:#8B5CF6;stop-opacity:1" />
    </linearGradient>
    <linearGradient id="gradient2" x1="0%" y1="0%" x2="100%" y2="100%">
      <stop offset="0%" style="stop-color:#10B981;stop-opacity:1" />
      <stop offset="100%" style="stop-color:#3B82F6;stop-opacity:1" />
    </linearGradient>
    <linearGradient id="gradient3" x1="0%" y1="0%" x2="100%" y2="100%">
      <stop offset="0%" style="stop-color:#F59E0B;stop-opacity:1" />
      <stop offset="100%" style="stop-color:#EF4444;stop-opacity:1" />
    </linearGradient>
  </defs>
  
  <!-- Background circles -->
  <circle cx="100" cy="80" r="60" fill="url(#gradient1)" opacity="0.1"/>
  <circle cx="500" cy="120" r="80" fill="url(#gradient2)" opacity="0.1"/>
  <circle cx="450" cy="320" r="70" fill="url(#gradient3)" opacity="0.1"/>
  
  <!-- Main illustration elements -->
  <!-- Student figure -->
  <g transform="translate(50, 150)">
    <circle cx="30" cy="30" r="25" fill="url(#gradient1)"/>
    <rect x="15" y="55" width="30" height="40" rx="5" fill="url(#gradient1)" opacity="0.8"/>
    <rect x="20" y="95" width="20" height="30" rx="3" fill="url(#gradient1)" opacity="0.6"/>
    <rect x="25" y="125" width="10" height="20" rx="2" fill="url(#gradient1)" opacity="0.4"/>
  </g>
  
  <!-- Faculty figure -->
  <g transform="translate(200, 120)">
    <circle cx="30" cy="30" r="25" fill="url(#gradient2)"/>
    <rect x="15" y="55" width="30" height="40" rx="5" fill="url(#gradient2)" opacity="0.8"/>
    <rect x="20" y="95" width="20" height="30" rx="3" fill="url(#gradient2)" opacity="0.6"/>
    <rect x="25" y="125" width="10" height="20" rx="2" fill="url(#gradient2)" opacity="0.4"/>
  </g>
  
  <!-- Placement cell figure -->
  <g transform="translate(350, 140)">
    <circle cx="30" cy="30" r="25" fill="url(#gradient3)"/>
    <rect x="15" y="55" width="30" height="40" rx="5" fill="url(#gradient3)" opacity="0.8"/>
    <rect x="20" y="95" width="20" height="30" rx="3" fill="url(#gradient3)" opacity="0.6"/>
    <rect x="25" y="125" width="10" height="20" rx="2" fill="url(#gradient3)" opacity="0.4"/>
  </g>
  
  <!-- Recruiter figure -->
  <g transform="translate(500, 160)">
    <circle cx="30" cy="30" r="25" fill="url(#gradient1)"/>
    <rect x="15" y="55" width="30" height="40" rx="5" fill="url(#gradient1)" opacity="0.8"/>
    <rect x="20" y="95" width="20" height="30" rx="3" fill="url(#gradient1)" opacity="0.6"/>
    <rect x="25" y="125" width="10" height="20" rx="2" fill="url(#gradient1)" opacity="0.4"/>
  </g>
  
  <!-- Connection lines -->
  <path d="M80 180 Q150 100 230 150" stroke="url(#gradient1)" stroke-width="3" fill="none" opacity="0.6"/>
  <path d="M230 150 Q290 130 380 170" stroke="url(#gradient2)" stroke-width="3" fill="none" opacity="0.6"/>
  <path d="M380 170 Q440 150 530 190" stroke="url(#gradient3)" stroke-width="3" fill="none" opacity="0.6"/>
  
  <!-- AI Brain icon -->
  <g transform="translate(300, 50)">
    <circle cx="30" cy="30" r="25" fill="url(#gradient1)" opacity="0.9"/>
    <path d="M15 30 Q30 15 45 30 Q30 45 15 30" fill="white" opacity="0.8"/>
    <circle cx="25" cy="25" r="3" fill="url(#gradient2)"/>
    <circle cx="35" cy="25" r="3" fill="url(#gradient2)"/>
  </g>
  
  <!-- Success indicators -->
  <g transform="translate(100, 250)">
    <circle cx="15" cy="15" r="12" fill="url(#gradient2)" opacity="0.8"/>
    <path d="M10 15 L13 18 L20 11" stroke="white" stroke-width="2" fill="none"/>
  </g>
  
  <g transform="translate(300, 280)">
    <circle cx="15" cy="15" r="12" fill="url(#gradient2)" opacity="0.8"/>
    <path d="M10 15 L13 18 L20 11" stroke="white" stroke-width="2" fill="none"/>
  </g>
  
  <g transform="translate(500, 260)">
    <circle cx="15" cy="15" r="12" fill="url(#gradient2)" opacity="0.8"/>
    <path d="M10 15 L13 18 L20 11" stroke="white" stroke-width="2" fill="none"/>
  </g>
</svg>